<?xml version="1.0" standalone="no"?>
<!DOCTYPE svg PUBLIC "-//W3C//DTD SVG 1.1//EN" "http://www.w3.org/Graphics/SVG/1.1/DTD/svg11.dtd" >
<svg xmlns="http://www.w3.org/2000/svg" xmlns:xlink="http://www.w3.org/1999/xlink" version="1.1">
<metadata>
Created by FontForge 20190801 at Thu Nov 23 01:49:27 2023
 By www-data
Hangry 2023, all right reserved
</metadata>
<defs>
<font id="Hangrytypewriter" horiz-adv-x="550" >
  <font-face 
    font-family="Hangrytypewriter"
    font-weight="500"
    font-stretch="normal"
    units-per-em="1000"
    panose-1="0 0 0 0 0 0 0 0 0 0"
    ascent="800"
    descent="-200"
    x-height="433"
    cap-height="592"
    bbox="-5 -227 556 811"
    underline-thickness="0"
    underline-position="0"
    unicode-range="U+0020-FEFF"
  />
<missing-glyph horiz-adv-x="457" 
d="M20 675h417v-675h-417v675zM68 48h320v579h-320v-579z" />
    <glyph glyph-name=".notdef" horiz-adv-x="457" 
d="M20 675h417v-675h-417v675zM68 48h320v579h-320v-579z" />
    <glyph glyph-name=".notdef" horiz-adv-x="457" 
d="M20 675h417v-675h-417v675zM68 48h320v579h-320v-579z" />
    <glyph glyph-name=".null" horiz-adv-x="0" 
 />
    <glyph glyph-name="nonmarkingreturn" horiz-adv-x="333" 
 />
    <glyph glyph-name="space" unicode=" " 
 />
    <glyph glyph-name="exclam" unicode="!" 
d="M220 128q23 23 55 23t55 -23t23 -55t-23 -55t-55 -23t-55 23t-23 55t23 55zM275 204q-17 0 -31 14q-13 13 -13 31q0 71 -30 216q-8 46 -8 52q0 36 21 60t61 24q39 0 62 -24q21 -24 21 -60q0 -6 -8 -52q-29 -148 -29 -216q0 -18 -13 -31q-14 -14 -33 -14z" />
    <glyph glyph-name="quotedbl" unicode="&#x22;" 
d="M209 401q-11 -9 -23 -9t-23 9q-10 9 -12 26q-15 131 -15 156v4q0 22 14 36q13 13 36 13q22 0 35 -13q14 -14 14 -36v-4q0 -25 -15 -156q-2 -17 -11 -26zM401 427q-2 -18 -11 -26q-10 -9 -23 -9t-23 9t-12 26q-15 131 -15 156v4q0 22 14 36q13 13 36 13q22 0 35 -13
q14 -14 14 -36v-4q0 -25 -15 -156z" />
    <glyph glyph-name="numbersign" unicode="#" 
d="M521 247q0 -13 -9 -24q-11 -11 -26 -11h-81v-82q0 -17 -10 -26q-11 -9 -25 -9t-24 10q-11 9 -11 25v82h-120v-82q0 -17 -10 -26q-11 -9 -25 -9t-24 10q-11 9 -11 25v82h-81q-17 0 -26 10t-9 25t10 25q9 10 25 10h81v119h-81q-17 0 -26 10q-9 11 -9 25q0 15 10 25
q9 10 25 10h81v82q0 17 10 26q11 9 25 9t25 -9q10 -10 10 -26v-82h120v82q0 17 10 26q11 9 25 9t25 -9q10 -10 10 -26v-82h81q17 0 26 -10q9 -11 9 -25t-9 -24q-11 -11 -26 -11h-81v-119h81q17 0 26 -10t9 -25zM215 401v-119h120v119h-120z" />
    <glyph glyph-name="dollar" unicode="$" 
d="M474 187v-47q0 -64 -39 -102q-41 -38 -101 -38h-17v-78q0 -17 -10 -26q-11 -9 -25 -9t-24 10q-11 9 -11 25v78h-23q-42 0 -77 20q-34 19 -51 62q-8 22 -8 29q0 13 10 23q9 9 26 9q25 0 33 -26q14 -47 67 -47h110q70 0 70 70v47q0 48 -22 67q-23 20 -103 20
q-103 0 -149 31t-46 125v22q0 65 40 102q41 38 100 38h23v65q0 17 10 26q11 9 25 9t25 -9q10 -10 10 -26v-65h17q49 0 83 -22q36 -23 49 -65q0 -4 1 -6q0 -3 1 -4v-3q0 -15 -10 -24t-26 -9q-24 0 -32 23q-15 40 -66 40h-110q-70 0 -70 -70v-22q0 -56 21 -71t104 -15
q103 0 150 -38q45 -39 45 -119z" />
    <glyph glyph-name="percent" unicode="%" 
d="M534 743q0 -11 -6 -23l-440 -843q-10 -19 -30 -19q-16 0 -26 10q-11 9 -11 24q0 2 5 17l375 719q-58 -30 -156 -56q13 -22 13 -58v-75q0 -53 -32 -83q-31 -31 -82 -31h-35q-50 0 -81 31q-33 30 -33 83v75q0 52 33 84q32 30 81 30h52q51 0 131 31q83 31 128 63q4 4 15 12
q1 0 4 3q1 1 3 2t3 2q6 4 10 8l21 15q13 10 28 10q11 0 22 -8q8 -11 8 -23zM553 184v-75q0 -53 -32 -83q-31 -31 -82 -31h-35q-50 0 -81 31q-33 30 -33 83v75q0 52 33 84q31 30 81 30h35q51 0 82 -30q32 -32 32 -84zM483 109v75q0 44 -44 44h-35q-44 0 -44 -44v-75
q0 -44 44 -44h35q44 0 44 44zM188 439v75q0 44 -44 44h-35q-44 0 -44 -44v-75q0 -44 44 -44h35q44 0 44 44z" />
    <glyph glyph-name="ampersand" unicode="&#x26;" 
d="M542 300q0 -14 -9 -24q-11 -11 -26 -11h-37v-125q0 -64 -39 -102q-41 -38 -101 -38h-110q-59 0 -100 38q-40 37 -40 102v56q0 68 46 107q-36 39 -36 103v44q0 62 47 104q47 41 115 41q86 0 164 -35q26 -12 26 -30q0 -15 -8 -26q-9 -11 -28 -11q-6 0 -33 11
q-39 21 -121 21q-45 0 -67 -22q-25 -22 -25 -53v-44q0 -70 60 -70h50q17 0 26 -10q9 -11 9 -25q0 -13 -9 -24q-11 -11 -26 -11h-50q-70 0 -70 -70v-56q0 -70 70 -70h110q70 0 70 70v160q0 14 11 25q10 10 24 10h72q17 0 26 -10q9 -11 9 -25z" />
    <glyph glyph-name="quotesingle" unicode="'" 
d="M301 401q-11 -9 -23 -9t-23 9q-10 9 -12 26q-15 131 -15 156v4q0 22 14 36q13 13 36 13q22 0 35 -13q14 -14 14 -36v-4q0 -25 -15 -156q-2 -17 -11 -26z" />
    <glyph glyph-name="parenleft" unicode="(" 
d="M365 -80q11 -11 11 -25t-11 -25t-25 -11t-25 11q-71 71 -125 190q-55 114 -55 275t55 275q54 119 125 190q11 11 25 11t25 -11t11 -25t-11 -25q-61 -61 -111 -169q-49 -102 -49 -246t49 -246q50 -108 111 -169z" />
    <glyph glyph-name="parenright" unicode=")" 
d="M331 610q54 -118 54 -275t-54 -275q-56 -120 -126 -190q-11 -11 -25 -11t-25 11t-11 25t11 25q61 61 111 169q49 102 49 246t-49 246q-50 108 -111 169q-11 11 -11 25t11 25t25 11t25 -11q70 -70 126 -190z" />
    <glyph glyph-name="asterisk" unicode="*" 
d="M506 473q0 -13 -9 -24q-11 -11 -26 -11h-135l67 -116q6 -9 6 -19q0 -15 -11 -24q-10 -10 -26 -10q-18 0 -29 18l-68 116l-67 -116q-10 -18 -29 -18q-16 0 -26 10q-11 9 -11 24q0 10 6 19l67 116h-135q-17 0 -26 10t-9 25t10 25q9 10 25 10h135l-67 116q-6 9 -6 19
q0 14 11 25q10 9 26 9q19 0 29 -18l67 -116l68 116q11 18 29 18q16 0 26 -9q11 -11 11 -25q0 -10 -6 -19l-67 -116h135q17 0 26 -10t9 -25z" />
    <glyph glyph-name="plus" unicode="+" 
d="M502 280q0 -14 -10 -24q-11 -11 -27 -11h-155v-155q0 -17 -10 -26q-10 -10 -25 -10q-14 0 -24 10q-11 9 -11 26v155h-156q-17 0 -26 10q-10 10 -10 25t10 25q9 10 26 10h156v156q0 17 10 27q10 9 25 9t25 -9q10 -10 10 -27v-156h155q17 0 27 -10t10 -25z" />
    <glyph glyph-name="comma" unicode="," 
d="M356 75q0 -22 -11 -60q-13 -37 -99 -123q-11 -11 -24 -11q-14 0 -25 11t-11 25t10 24q2 3 25 26l10 10q3 2 10 9q1 2 6 7q-64 19 -64 82q0 37 25 62t61 25q37 0 62 -25t25 -62z" />
    <glyph glyph-name="hyphen" unicode="-" 
d="M526 285q0 -13 -9 -24q-11 -11 -27 -11h-430q-17 0 -26 10q-10 10 -10 25t10 25q9 10 26 10h430q17 0 27 -10q9 -10 9 -25z" />
    <glyph glyph-name="period" unicode="." 
d="M269 164q36 0 61 -25t25 -61t-25 -60q-25 -25 -61 -25q-35 0 -60 25t-25 60q0 36 25 61q24 25 60 25z" />
    <glyph glyph-name="slash" unicode="/" 
d="M541 768q0 -10 -6 -21l-459 -841q-11 -20 -31 -20q-15 0 -25 10q-11 11 -11 25q0 11 6 21l459 841q11 20 31 20q16 0 26 -10t10 -25z" />
    <glyph glyph-name="zero" unicode="0" 
d="M470 452v-312q0 -64 -39 -102q-41 -38 -101 -38h-110q-59 0 -100 38q-40 37 -40 102v312q0 65 40 102q41 38 100 38h110q61 0 101 -37q39 -37 39 -103zM400 140v312q0 70 -70 70h-110q-70 0 -70 -70v-312q0 -70 70 -70h110q70 0 70 70z" />
    <glyph glyph-name="one" unicode="1" 
d="M489 35q0 -13 -9 -24q-11 -11 -27 -11h-350q-17 0 -26 10t-9 25t10 25q9 10 25 10h145v452h-95q-17 0 -26 10t-9 25t10 25q9 10 25 10h130q15 0 25 -10t10 -25v-487h135q17 0 27 -10q9 -10 9 -25z" />
    <glyph glyph-name="two" unicode="2" 
d="M470 452q0 -52 -20 -90q-21 -39 -58 -79l-197 -213h240q17 0 26 -10t9 -25q0 -13 -9 -24q-11 -11 -26 -11h-320q-17 0 -28 9q-11 8 -11 21q0 16 13 29l251 272q39 45 46 61q14 26 14 60q0 70 -70 70h-99q-70 0 -70 -70q0 -17 -10 -26t-25 -9q-14 0 -24 10q-11 9 -11 25
q0 65 40 102q41 38 100 38h99q61 0 101 -37q39 -37 39 -103z" />
    <glyph glyph-name="three" unicode="3" 
d="M470 240v-100q0 -65 -40 -102q-41 -38 -100 -38h-110q-59 0 -100 38q-40 37 -40 102q0 17 10 26t25 9t25 -9q10 -10 10 -26q0 -70 70 -70h110q70 0 70 70v100q0 70 -70 70h-59q-14 0 -24 10q-11 11 -11 24q0 10 14 30l107 148h-202v-40q0 -17 -10 -26q-11 -9 -25 -9
t-24 10q-11 9 -11 25v75q0 14 11 25q10 10 24 10h303q17 0 27 -9q11 -11 11 -26q0 -16 -12 -31l-107 -146q57 -5 92 -41q36 -37 36 -99z" />
    <glyph glyph-name="four" unicode="4" 
d="M491 140q0 -14 -9 -24q-11 -11 -26 -11h-36v-75q0 -17 -10 -26t-25 -9q-14 0 -24 10q-11 9 -11 25v75h-280q-16 0 -27 9q-10 7 -10 21q0 13 7 23l259 424q11 17 29 17q16 0 26 -9q11 -11 11 -25q0 -9 -6 -19l-227 -371h218v240q0 17 10 26t25 9t25 -9q10 -10 10 -26v-240
h36q17 0 26 -10t9 -25z" />
    <glyph glyph-name="five" unicode="5" 
d="M470 240v-100q0 -65 -40 -102q-41 -38 -100 -38h-110q-59 0 -100 38q-40 37 -40 102q0 17 10 26t25 9t25 -9q10 -10 10 -26q0 -70 70 -70h110q70 0 70 70v100q0 70 -70 70h-110q-25 0 -52 -8t-34 -8q-38 0 -38 51v55v47q-1 9 -1 49v61q0 14 11 25q10 10 24 10h285
q17 0 26 -10t9 -25q0 -13 -9 -24q-11 -11 -26 -11h-250v-148q27 6 55 6h110q59 0 100 -38q40 -37 40 -102z" />
    <glyph glyph-name="six" unicode="6" 
d="M470 240v-100q0 -64 -39 -102q-41 -38 -101 -38h-110q-59 0 -100 38q-40 37 -40 102v149q0 81 15 137q15 54 67 106q38 38 103 54q73 17 133 17h17q17 -2 25 -11q9 -10 9 -24t-9 -24q-9 -11 -25 -11h-25q-104 0 -163 -39q-60 -41 -73 -128q39 14 66 14h110q61 0 101 -37
q39 -37 39 -103zM400 140v100q0 70 -70 70h-110q-70 0 -70 -70v-100q0 -70 70 -70h110q70 0 70 70z" />
    <glyph glyph-name="seven" unicode="7" 
d="M508 562q0 -10 -6 -22q-109 -194 -161 -313q-43 -96 -49 -199q-2 -17 -11 -24q-11 -9 -24 -9t-24 9q-11 8 -11 24v4q3 105 45 205q42 101 144 285h-257v-55q0 -17 -10 -26t-25 -9q-14 0 -24 10q-11 9 -11 25v90q0 14 11 25q10 10 24 10h352q16 0 27 -8q10 -9 10 -22z" />
    <glyph glyph-name="eight" unicode="8" 
d="M470 208v-68q0 -65 -40 -102q-41 -38 -100 -38h-110q-59 0 -100 38q-40 37 -40 102v68q0 73 50 112q-35 38 -35 98v34q0 66 40 103q37 37 100 37h80q59 0 100 -38q40 -37 40 -102v-34q0 -60 -36 -98q51 -39 51 -112zM400 140v68q0 70 -70 70h-110q-70 0 -70 -70v-68
q0 -70 70 -70h110q70 0 70 70zM385 418v34q0 70 -70 70h-80q-70 0 -70 -70v-34q0 -70 70 -70h80q70 0 70 70z" />
    <glyph glyph-name="nine" unicode="9" 
d="M470 452v-147q0 -83 -15 -138t-67 -107q-38 -38 -103 -54q-73 -17 -133 -17h-17q-17 2 -25 11q-9 10 -9 24t9 25q9 10 25 10h26q105 0 163 40q58 39 72 129q-39 -14 -66 -14h-110q-59 0 -100 38q-40 37 -40 102v98q0 66 40 103q37 37 100 37h110q59 0 100 -38
q40 -37 40 -102zM400 354v98q0 70 -70 70h-110q-70 0 -70 -70v-98q0 -70 70 -70h110q70 0 70 70z" />
    <glyph glyph-name="colon" unicode=":" 
d="M274 444q36 0 61 -25t25 -61t-25 -61t-61 -25t-60 25q-25 25 -25 61t25 61q24 25 60 25zM274 164q36 0 61 -25t25 -61t-25 -60q-25 -25 -61 -25q-35 0 -60 25t-25 60q0 36 25 61q24 25 60 25z" />
    <glyph glyph-name="semicolon" unicode=";" 
d="M356 75q0 -22 -11 -60q-12 -36 -99 -123q-11 -11 -24 -11q-14 0 -25 11t-11 25t10 24q2 3 25 26l10 10q3 2 10 9q1 2 6 7q-64 19 -64 82q0 37 25 62t61 25q37 0 62 -25t25 -62zM269 444q36 0 61 -25t25 -61t-25 -61t-61 -25t-60 25q-25 25 -25 61t25 61q24 25 60 25z" />
    <glyph glyph-name="less" unicode="&#x3c;" 
d="M421 87q0 -14 -10 -24q-11 -11 -25 -11t-24 10l-220 191q-14 12 -14 26q0 17 14 29l218 193q10 10 24 10t25 -11q10 -10 10 -25t-13 -27l-189 -168l191 -166q13 -12 13 -27z" />
    <glyph glyph-name="equal" unicode="=" 
d="M499 179q0 -13 -9 -24q-11 -11 -27 -11h-376q-17 0 -26 10q-10 10 -10 25t10 25q9 10 26 10h376q17 0 27 -10q9 -10 9 -25zM499 379q0 -13 -9 -24q-11 -11 -27 -11h-376q-17 0 -26 10q-10 10 -10 25t10 25q9 10 26 10h376q17 0 27 -10q9 -11 9 -25z" />
    <glyph glyph-name="greater" unicode="&#x3e;" 
d="M421 279q0 -14 -13 -26l-220 -191q-10 -10 -25 -10q-13 0 -24 11t-11 24q0 16 14 27l191 166l-189 168q-14 12 -14 27q0 14 11 25t24 11q15 0 25 -10l217 -193q14 -12 14 -29z" />
    <glyph glyph-name="question" unicode="?" 
d="M472 484q0 -34 -12 -59q-13 -27 -31 -43q-20 -18 -40 -33q-4 -4 -9 -7l-12 -9q-16 -12 -19 -15q-18 -13 -31 -38q-13 -22 -13 -51q0 -17 -10 -26q-11 -9 -25 -9t-24 10q-11 9 -11 25q0 42 17 81q16 34 42 54q33 26 49 37q26 16 42 38q17 20 17 45q0 36 -24 59
q-22 22 -68 22h-74q-36 0 -62 -23q-24 -22 -24 -55v-32q0 -17 -10 -26t-25 -9q-14 0 -24 10q-11 9 -11 25v32q0 61 45 105q43 43 111 43h74q72 0 117 -42q45 -44 45 -109zM321 118q21 -21 21 -50q0 -30 -21 -49q-23 -21 -51 -21q-30 0 -49 21q-21 19 -21 49q0 29 21 50
q19 21 49 21q28 0 51 -21z" />
    <glyph glyph-name="at" unicode="@" 
d="M551 390v-161q0 -47 -30 -75q-32 -29 -74 -29h-5q-39 0 -66 21q-27 -21 -67 -21h-72q-44 0 -73 29q-30 28 -30 75v101q0 46 30 75q28 28 73 28h139q15 0 25 -10t10 -25v-184q6 -19 31 -19h5q34 0 34 34v161q0 44 -28 72t-72 28h-211q-42 0 -71 -29t-29 -71v-220
q0 -42 30 -70q28 -30 70 -30h247q17 0 26 -10t9 -25q0 -13 -9 -24q-11 -11 -26 -11h-247q-70 0 -120 50t-50 120v220q0 70 50 120t120 50h211q70 0 120 -50t50 -120zM341 214v149h-104q-33 0 -33 -33v-101q0 -34 33 -34h72q26 0 32 19z" />
    <glyph glyph-name="A" unicode="A" 
d="M467 33v-3q0 -15 -10 -24q-10 -10 -26 -10q-28 0 -34 29q-1 2 -4 30l-7 42q-2 15 -6 38t-5 30h-199l-29 -140q-6 -28 -33 -28q-15 0 -25 10q-11 9 -11 24q0 1 0.5 2.5t1 4.5t0.5 6l99 482q14 71 99 71q52 0 74 -25q23 -26 32 -75l81 -453q0 -5 1 -6q0 -4 1 -5zM243 491
l-53 -256h174l-51 262q-5 22 -11 26q-7 4 -24 4q-28 0 -35 -36z" />
    <glyph glyph-name="B" unicode="B" 
d="M470 201v-61q0 -64 -39 -102q-41 -38 -101 -38h-215q-13 0 -24 11t-11 24v522q0 14 11 25q10 10 24 10h212q61 0 101 -37q39 -37 39 -103v-42q0 -64 -41 -103q44 -38 44 -106zM400 140v61q0 69 -70 69h-180v-200h180q70 0 70 70zM397 410v42q0 70 -70 70h-177v-182h177
q70 0 70 70z" />
    <glyph glyph-name="C" unicode="C" 
d="M470 140q0 -64 -39 -102q-41 -38 -101 -38h-110q-59 0 -100 38q-40 37 -40 102v312q0 65 40 102q41 38 100 38h110q61 0 101 -37q39 -37 39 -103q0 -17 -10 -26t-25 -9q-14 0 -24 10q-11 9 -11 25q0 70 -70 70h-110q-70 0 -70 -70v-312q0 -70 70 -70h110q70 0 70 70
q0 17 10 26t25 9t25 -9q10 -10 10 -26z" />
    <glyph glyph-name="D" unicode="D" 
d="M470 452v-312q0 -64 -39 -102q-41 -38 -101 -38h-217q-13 0 -24 11t-11 24v522q0 14 11 25q10 10 24 10h217q61 0 101 -37q39 -37 39 -103zM400 140v312q0 70 -70 70h-182v-452h182q70 0 70 70z" />
    <glyph glyph-name="E" unicode="E" 
d="M478 35q0 -13 -9 -24q-11 -11 -26 -11h-311q-13 0 -24 11t-11 24v523q0 14 11 25q10 10 24 10h301q17 0 26 -10q9 -11 9 -25t-9 -24q-11 -11 -26 -11h-266v-188h118q17 0 26 -10q9 -11 9 -25t-9 -24q-11 -11 -26 -11h-118v-195h276q17 0 26 -10t9 -25z" />
    <glyph glyph-name="F" unicode="F" 
d="M475 558q0 -14 -9 -24q-11 -11 -26 -11h-256v-188h118q17 0 26 -10q9 -11 9 -25t-9 -24q-11 -11 -26 -11h-118v-234q0 -17 -10 -26t-25 -9q-14 0 -24 10q-11 9 -11 25v527q0 14 11 25q10 10 24 10h291q17 0 26 -10q9 -11 9 -25z" />
    <glyph glyph-name="G" unicode="G" 
d="M470 456q0 -17 -10 -26t-25 -9q-13 0 -24 9q-9 8 -11 25q-1 67 -70 67h-110q-70 0 -70 -70v-312q0 -70 70 -70h110q70 0 70 70v106h-90q-17 0 -26 10q-9 11 -9 25q0 15 10 25q9 10 25 10h125q15 0 25 -10t10 -25v-141q0 -64 -39 -102q-41 -38 -101 -38h-110
q-59 0 -100 38q-40 37 -40 102v312q0 65 40 102q41 38 100 38h110q61 0 101 -37q39 -37 39 -99z" />
    <glyph glyph-name="H" unicode="H" 
d="M472 560v-529q0 -17 -10 -26q-10 -10 -25 -10q-14 0 -24 10q-11 9 -11 26v250h-254v-250q0 -17 -10 -26q-10 -10 -25 -10q-14 0 -24 10q-11 9 -11 26v529q0 17 10 27q11 9 25 9q15 0 25 -9q10 -10 10 -27v-209h254v209q0 17 10 27q10 9 25 9t25 -9q10 -10 10 -27z" />
    <glyph glyph-name="I" unicode="I" 
d="M432 60q9 -10 9 -25t-9 -25q-10 -10 -27 -10h-260q-17 0 -26 10q-10 10 -10 25t10 25q9 10 26 10h95v452h-95q-17 0 -26 10q-10 10 -10 25t10 25q9 10 26 10h260q17 0 27 -10q9 -10 9 -25q0 -13 -9 -24q-11 -11 -27 -11h-95v-452h95q17 0 27 -10z" />
    <glyph glyph-name="J" unicode="J" 
d="M460 557v-417q0 -64 -39 -102q-41 -38 -101 -38h-110q-59 0 -100 38q-40 37 -40 102q0 17 10 26t25 9q14 0 25 -9q10 -10 10 -26q0 -70 70 -70h110q70 0 70 70v382h-240q-17 0 -26 10t-9 25t10 25q9 10 25 10h275q15 0 25 -10t10 -25z" />
    <glyph glyph-name="K" unicode="K" 
d="M486 31q0 -14 -11 -25q-14 -11 -26 -11q-17 0 -27 15l-188 259l-86 -105v-133q0 -17 -10 -26t-25 -9q-14 0 -24 10q-11 9 -11 25v529q0 17 10 26q11 9 25 9q15 0 25 -9q10 -10 10 -26v-285l249 307q11 14 27 14q15 0 25 -10q11 -11 11 -25q0 -13 -9 -23l-172 -212
l199 -274q8 -11 8 -21z" />
    <glyph glyph-name="L" unicode="L" 
d="M486 35q0 -13 -9 -24q-11 -11 -27 -11h-325q-13 0 -24 11t-11 24v525q0 17 10 27q11 9 25 9q15 0 25 -9q10 -10 10 -27v-490h290q17 0 27 -10q9 -10 9 -25z" />
    <glyph glyph-name="M" unicode="M" 
d="M480 557v-527q0 -16 -10 -25q-10 -10 -25 -10q-14 0 -24 10q-11 9 -11 25l-2 491h-1l-99 -260q-10 -28 -33 -28t-33 28l-101 261h-1v-492q0 -17 -10 -26q-11 -9 -25 -9t-24 10q-11 9 -11 25v527q0 14 11 25q10 10 24 10h37q23 0 37 -8q10 -6 19 -17q11 -27 13 -32
l64 -164l71 183q15 38 62 38h37q15 0 25 -10t10 -25z" />
    <glyph glyph-name="N" unicode="N" 
d="M465 560v-526q0 -14 -10 -24q-11 -11 -25 -11h-40q-23 0 -32 21l-203 461v-451q0 -17 -10 -26q-11 -9 -25 -9t-24 10q-11 9 -11 25v527q0 14 11 25q10 10 24 10h40q23 0 32 -21l203 -461v450q0 17 10 26q11 9 25 9t25 -9q10 -10 10 -26z" />
    <glyph glyph-name="O" unicode="O" 
d="M470 452v-312q0 -64 -39 -102q-41 -38 -101 -38h-110q-59 0 -100 38q-40 37 -40 102v312q0 65 40 102q41 38 100 38h110q61 0 101 -37q39 -37 39 -103zM400 140v312q0 70 -70 70h-110q-70 0 -70 -70v-312q0 -70 70 -70h110q70 0 70 70z" />
    <glyph glyph-name="P" unicode="P" 
d="M470 452v-122q0 -64 -39 -102q-41 -38 -101 -38h-180v-160q0 -17 -10 -26t-25 -9q-14 0 -24 10q-11 9 -11 25v527q0 14 11 25q10 10 24 10h215q61 0 101 -37q39 -37 39 -103zM400 330v122q0 70 -70 70h-180v-262h180q70 0 70 70z" />
    <glyph glyph-name="Q" unicode="Q" 
d="M470 452v-312q0 -73 -49 -110l42 -66q6 -10 6 -20q0 -13 -11 -24q-10 -10 -26 -10q-20 0 -29 16l-47 76h-12q-4 -1 -9 -1q-3 -1 -5 -1h-110q-59 0 -100 38q-40 37 -40 102v312q0 65 40 102q41 38 100 38h110q61 0 101 -37q39 -37 39 -103zM400 140v312q0 70 -70 70h-110
q-70 0 -70 -70v-312q0 -70 70 -70h94l-33 51q-6 10 -6 20q0 13 11 24q10 10 26 10q20 0 29 -16l43 -69q16 16 16 50z" />
    <glyph glyph-name="R" unicode="R" 
d="M470 452v-52q0 -47 -21 -80q-22 -34 -59 -49l73 -230q1 -1 1 -4q0 -4 1 -5v-3q0 -15 -10 -24q-10 -10 -26 -10q-25 0 -32 24l-77 241h-170v-230q0 -17 -10 -26t-25 -9q-14 0 -24 10q-11 9 -11 25v527q0 14 11 25q10 10 24 10h215q61 0 101 -37q39 -37 39 -103zM400 400
v52q0 70 -70 70h-180v-192h180q70 0 70 70z" />
    <glyph glyph-name="S" unicode="S" 
d="M470 206v-66q0 -64 -39 -102q-41 -38 -101 -38h-110q-59 0 -99 40q-41 39 -41 101q0 17 10 26t25 9t25 -9q10 -10 10 -26q0 -35 19 -53q18 -18 51 -18h110q70 0 70 70v66q0 23 -5 38q-5 11 -32 20q-34 8 -88 8q-103 0 -149 31t-46 125v24q0 65 40 102q41 38 100 38h110
q64 0 101 -37q39 -37 39 -103v-6q0 -17 -10 -26t-25 -9q-14 0 -24 10q-11 9 -11 25v6q0 70 -70 70h-110q-70 0 -70 -70v-24q0 -56 21 -71t104 -15q103 0 150 -29q45 -30 45 -107z" />
    <glyph glyph-name="T" unicode="T" 
d="M480 557q0 -13 -9 -24q-11 -11 -26 -11h-135v-492q0 -17 -10 -26t-25 -9q-14 0 -24 10q-11 9 -11 25v492h-135q-17 0 -26 10t-9 25t10 25q9 10 25 10h340q17 0 26 -10t9 -25z" />
    <glyph glyph-name="U" unicode="U" 
d="M470 560v-420q0 -64 -39 -102q-41 -38 -101 -38h-110q-59 0 -100 38q-40 37 -40 102v420q0 17 10 26t25 9t25 -9q10 -10 10 -26v-420q0 -70 70 -70h110q70 0 70 70v420q0 17 10 26t25 9t25 -9q10 -10 10 -26z" />
    <glyph glyph-name="V" unicode="V" 
d="M471 563q0 -6 -3 -27l-78 -408q-6 -33 -12 -52q-9 -26 -19 -40q-14 -21 -35 -29q-19 -10 -54 -10q-28 0 -55 11q-23 11 -35 33q-13 24 -19 42q-6 23 -11 48l-69 409q0 5 -0.5 10t-1 7.5t-0.5 3.5q0 16 11 25q10 9 25 9q29 0 34 -29l71 -423q7 -47 19 -62q11 -14 35 -14
q22 0 29 13q7 12 18 62l81 425q6 28 33 28q15 0 26 -9q10 -9 10 -23z" />
    <glyph glyph-name="W" unicode="W" 
d="M496 561v-19q-18 -335 -21 -407q-6 -138 -120 -138q-55 0 -85 30q-30 -30 -85 -30q-113 0 -120 138q-7 131 -12 237q-2 49 -6 139q-1 35 -3 45v7q0 15 10 24q11 8 25 8q13 0 24 -8q9 -8 11 -25l21 -423q1 -44 14 -57q11 -15 36 -15q29 0 39 15q11 14 11 55v230
q0 17 10 27q11 9 25 9t25 -9q10 -10 10 -27v-230q0 -41 11 -55q10 -15 39 -15q25 0 37 15t13 57l21 423q2 17 11 25q11 8 24 8q15 0 25 -9t10 -25z" />
    <glyph glyph-name="X" unicode="X" 
d="M476 29q0 -13 -11 -24q-10 -10 -26 -10q-20 0 -29 16l-140 225l-131 -224q-9 -17 -29 -17q-16 0 -26 10q-11 9 -11 24q0 10 6 19l149 255l-149 238q-6 11 -6 20q0 13 11 24q10 10 26 10q20 0 29 -16l129 -208l121 207q9 17 29 17q16 0 26 -9q11 -11 11 -25q0 -10 -6 -19
l-139 -238l160 -255q6 -11 6 -20z" />
    <glyph glyph-name="Y" unicode="Y" 
d="M471 561q0 -2 -5 -17l-161 -320v-194q0 -17 -10 -26q-11 -9 -25 -9t-24 10q-11 9 -11 25v194l-152 321q-3 7 -3 16q0 14 11 25q11 9 25 9q22 0 31 -20l124 -263l133 264q10 19 30 19q16 0 26 -9q11 -11 11 -25z" />
    <glyph glyph-name="Z" unicode="Z" 
d="M479 35q0 -13 -9 -24q-11 -11 -26 -11h-329q-17 0 -27 9q-10 7 -10 21q0 13 7 23l287 469h-246q-17 0 -26 10t-9 25t10 25q9 10 25 10h309q16 0 27 -8q10 -9 10 -22t-7 -23l-287 -469h266q17 0 26 -10t9 -25z" />
    <glyph glyph-name="bracketleft" unicode="[" 
d="M398 -155q0 -13 -9 -24q-11 -11 -26 -11h-182q-13 0 -24 11t-11 24v920q0 14 11 25q10 10 24 10h181q17 0 26 -10t9 -25q0 -13 -9 -24q-11 -11 -26 -11h-146v-850h147q17 0 26 -10q9 -11 9 -25z" />
    <glyph glyph-name="backslash" unicode="\" 
d="M541 -79q0 -15 -10 -25t-26 -10q-20 0 -31 20l-459 842q-6 10 -6 20q0 14 11 25q10 10 25 10q20 0 31 -20l459 -841q6 -10 6 -21z" />
    <glyph glyph-name="bracketright" unicode="]" 
d="M398 765v-920q0 -14 -10 -24q-11 -11 -25 -11h-182q-17 0 -26 10t-9 25t10 25q9 10 25 10h147v850h-146q-17 0 -26 10t-9 25t10 25q9 10 25 10h181q15 0 25 -10t10 -25z" />
    <glyph glyph-name="asciicircum" unicode="^" 
d="M300 737l166 -176q10 -10 10 -24q0 -13 -11 -24t-25 -11t-25 11l-139 149h-1l-139 -149q-11 -11 -25 -11t-25 11t-11 24q0 14 10 24l166 176q10 10 25 10q14 0 24 -10z" />
    <glyph glyph-name="underscore" unicode="_" 
d="M550 0q0 -14 -9 -24q-11 -11 -27 -11h-477q-17 0 -27 10t-10 25t10 25t27 10h477q17 0 27 -10q9 -10 9 -25z" />
    <glyph glyph-name="grave" unicode="`" 
d="M361 496q0 -14 -9 -23q-10 -10 -24 -10t-26 9l-2 2l-2 1q-2 1 -2 2q-13 9 -17 13l-24 18q-25 18 -64 48q-20 17 -20 38q0 18 15 35q15 15 36 15t38 -17q62 -71 89 -104q12 -13 12 -27z" />
    <glyph glyph-name="a" unicode="a" 
d="M494 32q0 -16 -9 -26q-11 -11 -25 -11q-2 0 -17 5q-20 10 -38 31q-38 -32 -94 -32h-110q-59 0 -100 33q-40 31 -40 93q0 115 125 127q32 0 156 16q33 4 39 28v7q0 27 -18 44q-16 16 -49 16h-98q-62 0 -72 -43q-8 -26 -32 -26q-16 0 -26 9q-11 9 -11 24q0 3 3 14
q12 48 51 70q37 22 87 22h98q59 0 100 -38q38 -41 38 -102v-172q0 -47 23 -59q19 -10 19 -30zM382 139v67q-14 -5 -31 -7q-8 0 -14 -1q-13 -2 -30 -3q-9 0 -17 -1q-11 -1 -19 -3q-66 -7 -78 -9q-37 -3 -49 -15q-13 -13 -13 -42q0 -56 70 -56h111q70 0 70 70z" />
    <glyph glyph-name="b" unicode="b" 
d="M470 293v-153q0 -65 -40 -102q-41 -38 -100 -38h-110q-59 0 -100 38q-40 37 -40 102v463q0 17 10 26t25 9t25 -9q10 -10 10 -26v-186q31 16 70 16h110q59 0 100 -38q40 -37 40 -102zM400 140v153q0 70 -70 70h-110q-70 0 -70 -70v-153q0 -70 70 -70h110q70 0 70 70z" />
    <glyph glyph-name="c" unicode="c" 
d="M470 298q0 -17 -10 -26q-10 -10 -25 -10q-13 0 -24 9q-9 8 -11 25q-1 67 -70 67h-110q-70 0 -70 -70v-153q0 -70 70 -70h110q68 0 70 68q0 16 11 25t24 9q15 0 25 -9q10 -10 10 -27q0 -62 -39 -99q-40 -37 -101 -37h-110q-59 0 -100 38q-40 37 -40 102v153q0 65 40 102
q41 38 100 38h110q61 0 101 -37q39 -38 39 -98z" />
    <glyph glyph-name="d" unicode="d" 
d="M470 603v-463q0 -64 -39 -102q-41 -38 -101 -38h-110q-59 0 -100 38q-40 37 -40 102v153q0 65 40 102q41 38 100 38h110q39 0 70 -16v186q0 17 10 26t25 9t25 -9q10 -10 10 -26zM400 140v153q0 70 -70 70h-110q-70 0 -70 -70v-153q0 -70 70 -70h110q70 0 70 70z" />
    <glyph glyph-name="e" unicode="e" 
d="M470 293v-55q0 -25 -16 -40q-16 -16 -39 -16h-265v-42q0 -70 70 -70h105q59 0 73 48q7 25 33 25q15 0 26 -9q10 -9 10 -24v-1v-2q-1 -1 -1 -4q-1 -1 -1 -5q-11 -46 -48 -71q-37 -27 -92 -27h-105q-59 0 -100 38q-40 37 -40 102v153q0 65 40 102q41 38 100 38h110
q61 0 101 -37q39 -38 39 -103zM150 293v-41h250v41q0 70 -70 70h-110q-70 0 -70 -70z" />
    <glyph glyph-name="f" unicode="f" 
d="M536 502q0 -15 -10 -24q-10 -10 -26 -10q-26 0 -33 25q-9 32 -24 44t-45 12h-50q-70 0 -70 -70v-46h108q17 0 26 -10q9 -11 9 -25t-9 -24q-11 -11 -26 -11h-108v-332q0 -17 -10 -26t-25 -9q-14 0 -24 10q-11 9 -11 25v332h-47q-17 0 -26 10q-9 11 -9 25q0 15 10 25
q9 10 25 10h47v46q0 66 40 103q37 37 100 37h50q105 0 136 -103q2 -10 2 -14z" />
    <glyph glyph-name="g" unicode="g" 
d="M470 293v-331q0 -63 -46 -103q-46 -42 -116 -42q-115 0 -151 10q-26 8 -26 33q0 16 10 26q9 10 24 10q9 0 10 -1q34 -8 133 -8q42 0 68 23q24 22 24 52v50q-31 -16 -70 -16h-110q-59 0 -100 38q-40 37 -40 102v157q0 65 40 102q41 38 100 38h110q61 0 101 -37
q39 -38 39 -103zM400 136v157q0 70 -70 70h-110q-70 0 -70 -70v-157q0 -70 70 -70h110q70 0 70 70z" />
    <glyph glyph-name="h" unicode="h" 
d="M470 293v-261q0 -17 -10 -26t-25 -9q-14 0 -24 10q-11 9 -11 25v261q0 70 -70 70h-110q-32 0 -52 -18q-19 -19 -19 -52v-262q0 -17 -10 -26q-11 -9 -25 -9t-24 10q-11 9 -11 25l1 572q0 17 10 26t25 9t25 -9q10 -10 10 -26v-186q28 16 70 16h110q61 0 101 -37
q39 -38 39 -103z" />
    <glyph glyph-name="i" unicode="i" 
d="M484 35q0 -13 -9 -24q-11 -11 -26 -11h-345q-17 0 -26 10t-9 25t10 25q9 10 25 10h143v293h-90q-17 0 -26 10q-9 11 -9 25q0 15 10 25q9 10 25 10h115q19 0 32 -13t13 -32v-318h132q17 0 26 -10t9 -25zM220 616q21 22 53 22t54 -22t22 -54t-22 -53q-22 -22 -54 -22
t-53 22q-22 21 -22 53t22 54z" />
    <glyph glyph-name="j" unicode="j" 
d="M349 398v-428q0 -64 -39 -102q-41 -38 -101 -38h-50q-104 0 -135 100q-4 7 -4 19q0 14 11 25q11 9 25 9q25 0 33 -26q9 -34 25 -44q13 -13 45 -13h50q70 0 70 70v393h-60q-17 0 -26 10q-9 11 -9 25q0 15 10 25q9 10 25 10h95q15 0 25 -10t10 -25zM345 616q21 -22 21 -54
t-21 -53q-22 -22 -54 -22t-54 22q-22 21 -22 53t22 54t54 22t54 -22z" />
    <glyph glyph-name="k" unicode="k" 
d="M441 375l-152 -139l175 -178q13 -13 13 -27t-11 -25t-25 -11t-25 11l-178 182l-88 -81v-76q0 -17 -10 -26t-25 -9q-14 0 -24 10q-11 9 -11 25v572q0 17 10 26t25 9t25 -9q10 -10 10 -26v-401l243 225q10 10 24 10t25 -11t11 -25t-12 -26z" />
    <glyph glyph-name="l" unicode="l" 
d="M484 35q0 -13 -9 -24q-11 -11 -26 -11h-345q-17 0 -26 10t-9 25t10 25q9 10 25 10h143v468h-90q-17 0 -26 10t-9 25t10 25q9 10 25 10h115q19 0 32 -13t13 -32v-493h132q17 0 26 -10t9 -25z" />
    <glyph glyph-name="m" unicode="m" 
d="M490 293v-261q0 -17 -10 -26t-25 -9q-14 0 -24 10q-11 9 -11 25v261q0 42 -13 55q-13 15 -42 15q-27 0 -41 -15q-14 -17 -14 -55v-261q0 -17 -10 -26q-10 -10 -25 -10q-14 0 -24 10q-11 9 -11 26v261q0 42 -13 55q-13 15 -42 15q-27 0 -41 -15q-14 -17 -14 -55v-262
q0 -17 -10 -26t-25 -9q-14 0 -24 10q-11 9 -11 25v371q0 15 11 26q11 9 24 9q19 0 30 -17q25 13 60 13q58 0 90 -35q33 35 90 35q63 0 94 -37t31 -103z" />
    <glyph glyph-name="n" unicode="n" 
d="M470 293v-261q0 -17 -10 -26t-25 -9q-14 0 -24 10q-11 9 -11 25v261q0 70 -70 70h-110q-70 0 -70 -70v-262q0 -17 -10 -26t-25 -9q-14 0 -24 10q-11 9 -11 25v371q0 15 11 26q11 9 24 9q26 0 33 -22q34 18 72 18h110q61 0 101 -37q39 -38 39 -103z" />
    <glyph glyph-name="o" unicode="o" 
d="M470 293v-154q0 -65 -39 -102q-41 -38 -101 -38h-110q-59 0 -100 38q-40 37 -40 102v154q0 65 40 102q41 38 100 38h110q61 0 101 -37q39 -38 39 -103zM400 139v154q0 70 -70 70h-110q-70 0 -70 -70v-154q0 -70 70 -70h110q70 0 70 70z" />
    <glyph glyph-name="p" unicode="p" 
d="M470 293v-153q0 -65 -40 -102q-41 -38 -100 -38h-110q-39 0 -70 16v-166q0 -17 -10 -26t-25 -9q-14 0 -24 10q-11 9 -11 25v443q0 66 40 103q37 37 100 37h110q59 0 100 -38q40 -37 40 -102zM400 140v153q0 70 -70 70h-110q-70 0 -70 -70v-153q0 -70 70 -70h110
q70 0 70 70z" />
    <glyph glyph-name="q" unicode="q" 
d="M470 293v-443q0 -17 -10 -26q-11 -9 -25 -9t-24 10q-11 9 -11 25v166q-31 -16 -70 -16h-110q-59 0 -100 38q-40 37 -40 102v153q0 65 40 102q41 38 100 38h110q61 0 101 -37q39 -38 39 -103zM400 140v153q0 70 -70 70h-110q-70 0 -70 -70v-153q0 -70 70 -70h110
q70 0 70 70z" />
    <glyph glyph-name="r" unicode="r" 
d="M498 293q0 -17 -10 -26t-25 -9q-14 0 -24 10q-11 9 -11 25q0 70 -70 70h-50q-70 0 -70 -70v-223h111q17 0 26 -10t9 -25q0 -13 -9 -24q-11 -11 -26 -11h-245q-17 0 -26 10t-9 25t10 25q9 10 25 10h64v293h-64q-17 0 -26 10q-9 11 -9 25q0 15 10 25q9 10 25 10h89
q24 0 38 -21q37 21 77 21h50q61 0 101 -37q39 -38 39 -103z" />
    <glyph glyph-name="s" unicode="s" 
d="M431 235q39 -31 39 -96t-39 -102q-41 -38 -101 -38h-110q-104 0 -135 100q-4 9 -4 23t11 25q10 9 25 9q27 0 33 -29q12 -58 70 -58h110q70 0 70 70q0 30 -16 43t-54 13h-111q-134 0 -134 111q0 61 37 94q38 33 96 33h112q50 0 75 -16q27 -16 46 -55q3 -8 3 -16
q0 -15 -10 -24q-10 -10 -26 -10q-22 0 -31 20q-10 19 -19 25q-11 6 -38 6h-112q-35 0 -48 -13q-15 -14 -15 -44q0 -24 12 -32q12 -9 52 -9h111q62 0 101 -30z" />
    <glyph glyph-name="t" unicode="t" 
d="M498 123q0 -12 -3 -18q-25 -106 -137 -106h-43q-59 0 -100 38q-40 37 -40 102v224h-64q-17 0 -26 10q-9 11 -9 25q0 15 10 25q9 10 25 10h64v140q0 17 10 26q11 9 25 9t25 -9q10 -10 10 -26v-140h161q17 0 26 -10q9 -11 9 -25t-9 -24q-11 -11 -26 -11h-161v-224
q0 -70 70 -70h43q35 0 48 13q12 10 23 48q7 27 33 27q16 0 26 -9q10 -10 10 -25z" />
    <glyph glyph-name="u" unicode="u" 
d="M470 402v-371q0 -16 -10 -25q-10 -10 -25 -10q-26 0 -33 22q-34 -18 -72 -18h-110q-59 0 -100 38q-40 37 -40 102v261q0 17 10 26t25 9t25 -9q10 -10 10 -26v-261q0 -70 70 -70h110q70 0 70 70v262q0 17 10 26t25 9t25 -9q10 -10 10 -26z" />
    <glyph glyph-name="v" unicode="v" 
d="M472 402q0 -11 -3 -17l-82 -294q-15 -55 -39 -74q-26 -20 -72 -20q-45 0 -71 20q-25 19 -40 72l-83 295q-3 6 -3 18q0 14 11 25q10 9 25 9q25 0 33 -26l86 -309q4 -19 14 -27q7 -7 29 -7t29 7q7 9 14 35l83 301q8 26 33 26q16 0 26 -9q10 -10 10 -25z" />
    <glyph glyph-name="w" unicode="w" 
d="M490 383l-16 -290q-3 -48 -35 -71q-35 -23 -77 -23q-46 0 -87 32q-41 -32 -87 -32q-44 0 -76 24q-33 22 -36 70l-16 287v10q-1 3 -1 13q0 17 10 24q11 8 25 8q13 0 24 -8q9 -8 11 -25l17 -305q1 -28 42 -28q20 0 52 24v183q0 17 10 26t25 9t25 -9q10 -10 10 -26v-183
q28 -24 52 -24q41 0 42 28l17 305q1 33 35 33q14 0 25 -8q10 -7 10 -24v-10q-1 -3 -1 -10z" />
    <glyph glyph-name="x" unicode="x" 
d="M444 378l-128 -149l161 -174q10 -10 10 -24t-11 -25t-25 -11t-26 12l-155 169l-146 -168q-12 -13 -25 -13q-14 0 -25 11q-12 11 -12 25q0 13 10 23l150 174l-138 149q-10 10 -10 24t11 25t25 11t26 -12l132 -144l124 143q12 13 25 13q12 0 26 -11q11 -11 11 -25
q0 -10 -10 -23z" />
    <glyph glyph-name="y" unicode="y" 
d="M458 402q0 -8 -3 -15q0 -1 -9 -22q-26 -61 -31 -72q-41 -92 -48 -109q-84 -194 -89 -204q-27 -59 -53 -85q-29 -29 -82 -49h-6q-2 -1 -4 -1q-1 -1 -3 -1q-15 0 -24 11q-10 10 -10 25q0 26 25 33q38 14 55 32q19 19 38 63l20 46l-151 333q-3 7 -3 15q0 14 11 25q11 9 25 9
q20 0 31 -21l125 -274l119 274q11 21 31 21q16 0 26 -9q10 -10 10 -25z" />
    <glyph glyph-name="z" unicode="z" 
d="M479 35q0 -13 -9 -24q-11 -11 -26 -11h-329q-17 0 -28 9q-11 8 -11 21q0 12 12 27l269 306h-231q-17 0 -26 10q-9 11 -9 25q0 15 10 25q9 10 25 10h309q18 0 29 -8q10 -9 10 -22q0 -15 -16 -31l-265 -302h251q17 0 26 -10t9 -25z" />
    <glyph glyph-name="braceleft" unicode="{" 
d="M426 -129q9 -11 9 -25t-9 -25q-9 -10 -26 -10h-57q-51 0 -79 30q-28 28 -28 81v277q0 70 -60 70h-29q-17 0 -26 10q-9 11 -9 25q0 15 10 25q9 10 25 10h29q60 0 60 70v279q0 54 28 82q29 29 79 29h57q17 0 26 -10q9 -11 9 -25t-9 -25q-9 -10 -26 -10h-57q-19 0 -27 -8
q-9 -7 -9 -33v-279q0 -80 -40 -105q40 -25 40 -105v-277q0 -26 9 -33q8 -8 27 -8h57q17 0 26 -10z" />
    <glyph glyph-name="bar" unicode="|" 
d="M312 766v-844q0 -17 -10 -26t-25 -9q-14 0 -24 10q-11 9 -11 25v844q0 17 10 26t25 9t25 -9q10 -10 10 -26z" />
    <glyph glyph-name="braceright" unicode="}" 
d="M445 304q0 -14 -9 -24q-11 -11 -26 -11h-29q-60 0 -60 -70v-277q0 -53 -28 -81q-29 -30 -79 -30h-57q-17 0 -26 10q-9 11 -9 25t9 25q9 10 26 10h57q17 0 28 8q8 8 8 33v277q0 80 40 105q-40 25 -40 105v279q0 25 -8 33q-11 8 -28 8h-57q-17 0 -26 10q-9 11 -9 25t9 25
q9 10 26 10h57q50 0 79 -29q28 -28 28 -82v-279q0 -70 60 -70h29q17 0 26 -10q9 -11 9 -25z" />
    <glyph glyph-name="asciitilde" unicode="~" 
d="M504 305q0 -10 -11 -27q-42 -66 -124 -66q-47 0 -84 22l-2 2q-2 1 -6 4q-5 2 -10 5q-7 3 -9 5q-1 1 -5 3l-4 2q-5 1 -6 3l-21 9q-22 8 -25 9q-4 0 -7 0.5t-5.5 0.5t-4.5 0.5t-3 0.5h-2h-1q-39 0 -61 -40q-11 -18 -30 -18q-16 0 -26 10q-11 9 -11 23q0 10 5 18
q41 75 127 75q60 0 118 -37q43 -28 79 -28q38 0 59 35q13 22 32 22q15 0 27 -9q11 -11 11 -24z" />
    <glyph glyph-name="uni02BB" unicode="&#x2bb;" 
d="M355 607q0 -36 -25 -61q-26 -26 -61 -26t-61 26t-26 61q0 40 19 74q1 3 6 9q1 1 3 5q1 2 1 4q8 13 12 17q7 7 12 14q5 5 7 8q2 2 4 5l3 3l14 14l15 15l14 14q12 12 25 12q14 0 25 -11t11 -25q0 -10 -11 -24l-10 -10q-3 -4 -14 -15l-2 -2q-1 -2 -3 -4l-8 -8
q-12 -12 -13 -14q63 -20 63 -81z" />
    <glyph glyph-name="uni02BC" unicode="&#x2bc;" 
d="M182 713q0 37 25 62t61 25t61 -25q26 -26 26 -62q0 -40 -19 -74l-2 -2q-2 -1 -3 -6q-4 -6 -5 -9q-5 -10 -12 -17q-8 -9 -12 -15q-1 -2 -14 -15q-1 -1 -5.5 -6t-7.5 -8l-15 -15l-15 -15q-12 -12 -25 -12q-14 0 -25 11t-11 25q0 10 11 24l3 3q5 5 9 10q3 4 12 13
q7 7 12.5 13t9 9.5l4.5 4.5q-63 20 -63 81z" />
    <glyph glyph-name="circumflex" unicode="&#x2c6;" 
d="M434 508q0 -14 -11 -25t-25 -11q-10 0 -21 8l-105 80l-104 -80q-11 -8 -22 -8q-13 0 -24 11t-11 25q0 17 14 28l120 90q17 11 28 11q10 0 27 -11q33 -21 119 -90q15 -12 15 -28z" />
    <glyph glyph-name="caron" unicode="&#x2c7;" 
d="M436 609q0 -16 -15 -28q-86 -69 -119 -90q-17 -11 -27 -11q-11 0 -28 11l-3 3l-12 9q-2 2 -8 6t-9 7q-5 3 -24 18q-27 20 -29 21q-5 3 -12 8.5t-9 7.5q-4 4 -6 5q-3 1 -6 4l-2 1q-14 11 -14 28q0 14 11 25t24 11q11 0 22 -8l105 -80l104 80q11 8 21 8q14 0 25 -11t11 -25
z" />
    <glyph glyph-name="breve" unicode="&#x2d8;" 
d="M373 518q-46 -31 -95 -31q-51 0 -94 31q-47 32 -63 76q-3 12 -3 17q0 14 11 25q11 9 25 9q21 0 31 -22q33 -66 93 -66q61 0 94 66q10 22 31 22q15 0 26 -9q11 -11 11 -25q0 -11 -3 -17q-19 -46 -64 -76z" />
    <glyph glyph-name="dotaccent" unicode="&#x2d9;" 
d="M221 616q21 22 53 22t54 -22t22 -54t-22 -53q-22 -22 -54 -22t-53 22q-22 21 -22 53t22 54z" />
    <glyph glyph-name="ring" unicode="&#x2da;" 
d="M342 586v-58q0 -19 -13 -32q-14 -14 -32 -14h-58q-18 0 -32 14t-14 32v58q0 18 14 32q13 13 32 13h58q19 0 32 -13t13 -32zM238 585v-57h59v57h-59z" />
    <glyph glyph-name="ogonek" unicode="&#x2db;" 
d="M364 -154q0 -19 -18 -28q-28 -11 -45 -11q-41 0 -69 30q-29 32 -29 70q0 29 20 58q11 14 25 41l2 2q1 3 2 5q0 1 1 2.5l2 3t1 2.5q5 10 6 11l2 3q9 17 28 17q14 0 25 -9q10 -10 10 -24q0 -9 -5 -17l-20 -34q-2 -4 -12 -18q-11 -14 -15 -26q-5 -15 -5 -21q0 -12 10 -21
t22 -9q8 0 15 4t15 4q14 0 23 -11q9 -10 9 -24z" />
    <glyph glyph-name="tilde" unicode="&#x2dc;" 
d="M443 577q0 -9 -6 -21q-32 -68 -98 -68q-33 0 -63 21q-1 1 -4 3t-6 4.5t-6 4.5q-3 1 -9 6l-8 6l-1 1q-1 1 -2.5 2t-3.5 2q-5 1 -7 3q-7 3 -15 3q-18 0 -33 -31q-10 -22 -33 -22q-15 0 -25 10q-11 9 -11 23q0 10 8 24q35 65 94 65q43 0 87 -35q29 -20 41 -20q18 0 31 28
q11 24 33 24q16 0 26 -9q11 -11 11 -24z" />
    <glyph glyph-name="hungarumlaut" unicode="&#x2dd;" 
d="M280 654q0 -5 -5 -22q-8 -25 -36 -80q-1 -5 -8 -17q-6 -11 -8 -16q-1 -2 -2 -5t-2 -4l-2.5 -5t-1.5 -4q-1 -5 -3 -6q-4 -7 -4 -8q-10 -24 -33 -24q-14 0 -24 10q-10 9 -10 25q0 1 6 28l1 1q0 1 0.5 3t0.5 4q2 8 3 11q2 5 3 12l2 9l14 53q7 30 12 45q5 20 17 29
q13 10 29 10q9 0 18 -3q33 -12 33 -46zM453 654q0 -5 -5 -22q-8 -25 -36 -80q-1 -5 -8 -17q-6 -11 -8 -16q0 -2 -2 -5t-2 -4l-2.5 -5t-1.5 -4q-2 -5 -3 -6q-4 -7 -4 -8q-11 -24 -33 -24q-14 0 -24 10q-10 9 -10 25q0 1 6 28v1q1 1 1.5 3t0.5 4q2 8 3 11q1 5 3 12q0 2 0.5 4
t1.5 3v2l14 53l12 45q5 20 17 29q13 10 29 10q9 0 18 -3q33 -12 33 -46z" />
    <glyph glyph-name="gravecomb" unicode="&#x300;" 
d="M361 496q0 -14 -9 -23q-10 -10 -24 -10t-26 9l-2 2l-2 1q-2 1 -2 2q-13 9 -17 13l-24 18q-25 18 -64 48q-20 17 -20 38q0 18 15 35q15 15 36 15t38 -17q62 -71 89 -104q12 -13 12 -27z" />
    <glyph glyph-name="acutecomb" unicode="&#x301;" 
d="M365 593q0 -20 -20 -37q-39 -30 -64 -48q-6 -4 -23 -18q-15 -11 -17 -13q-1 -1 -5 -3l-2 -2q-12 -9 -26 -9t-23 10q-10 9 -10 23q0 13 11 27q4 5 90 104q17 17 38 17q23 0 36 -13q15 -13 15 -38z" />
    <glyph glyph-name="uni0302" unicode="&#x302;" 
d="M434 508q0 -14 -11 -25t-25 -11q-10 0 -21 8l-105 80l-104 -80q-11 -8 -22 -8q-13 0 -24 11t-11 25q0 17 14 28l120 90q17 11 28 11q10 0 27 -11q33 -21 119 -90q15 -12 15 -28z" />
    <glyph glyph-name="tildecomb" unicode="&#x303;" 
d="M443 577q0 -9 -6 -21q-32 -68 -98 -68q-33 0 -63 21q-1 1 -4 3t-6 4.5t-6 4.5q-3 1 -9 6l-8 6l-1 1q-1 1 -2.5 2t-3.5 2q-5 1 -7 3q-7 3 -15 3q-18 0 -33 -31q-10 -22 -33 -22q-15 0 -25 10q-11 9 -11 23q0 10 8 24q35 65 94 65q43 0 87 -35q29 -20 41 -20q18 0 31 28
q11 24 33 24q16 0 26 -9q11 -11 11 -24z" />
    <glyph glyph-name="uni0304" unicode="&#x304;" 
d="M438 562q0 -14 -9 -24q-11 -11 -27 -11h-253q-17 0 -26 10q-10 10 -10 25t10 25q9 10 26 10h253q17 0 27 -10q9 -11 9 -25z" />
    <glyph glyph-name="uni0306" unicode="&#x306;" 
d="M373 518q-46 -31 -95 -31q-51 0 -94 31q-47 32 -63 76q-3 12 -3 17q0 14 11 25q11 9 25 9q21 0 31 -22q33 -66 93 -66q61 0 94 66q10 22 31 22q15 0 26 -9q11 -11 11 -25q0 -11 -3 -17q-19 -46 -64 -76z" />
    <glyph glyph-name="uni0307" unicode="&#x307;" 
d="M221 616q21 22 53 22t54 -22t22 -54t-22 -53q-22 -22 -54 -22t-53 22q-22 21 -22 53t22 54z" />
    <glyph glyph-name="uni0308" unicode="&#x308;" 
d="M122 592q17 18 43 18t44 -18t18 -44t-18 -43q-18 -18 -44 -18q-27 0 -43 18q-18 17 -18 43t18 44zM385 610q26 0 44 -18t18 -44t-18 -43q-18 -18 -44 -18q-27 0 -43 18q-18 17 -18 43t18 44q16 18 43 18z" />
    <glyph glyph-name="uni030A" unicode="&#x30a;" 
d="M342 586v-58q0 -19 -13 -32q-14 -14 -32 -14h-58q-18 0 -32 14t-14 32v58q0 18 14 32q13 13 32 13h58q19 0 32 -13t13 -32zM238 585v-57h59v57h-59z" />
    <glyph glyph-name="uni030B" unicode="&#x30b;" 
d="M280 654q0 -5 -5 -22q-8 -25 -36 -80q-1 -5 -8 -17q-6 -11 -8 -16q-1 -2 -2 -5t-2 -4l-2.5 -5t-1.5 -4q-1 -5 -3 -6q-4 -7 -4 -8q-10 -24 -33 -24q-14 0 -24 10q-10 9 -10 25q0 1 6 28l1 1q0 1 0.5 3t0.5 4q2 8 3 11q2 5 3 12l2 9l14 53q7 30 12 45q5 20 17 29
q13 10 29 10q9 0 18 -3q33 -12 33 -46zM453 654q0 -5 -5 -22q-8 -25 -36 -80q-1 -5 -8 -17q-6 -11 -8 -16q0 -2 -2 -5t-2 -4l-2.5 -5t-1.5 -4q-2 -5 -3 -6q-4 -7 -4 -8q-11 -24 -33 -24q-14 0 -24 10q-10 9 -10 25q0 1 6 28v1q1 1 1.5 3t0.5 4q2 8 3 11q1 5 3 12q0 2 0.5 4
t1.5 3v2l14 53l12 45q5 20 17 29q13 10 29 10q9 0 18 -3q33 -12 33 -46z" />
    <glyph glyph-name="uni030C" unicode="&#x30c;" 
d="M436 609q0 -16 -15 -28q-86 -69 -119 -90q-17 -11 -27 -11q-11 0 -28 11l-3 3l-12 9q-2 2 -8 6t-9 7q-5 3 -24 18q-27 20 -29 21q-5 3 -12 8.5t-9 7.5q-4 4 -6 5q-3 1 -6 4l-2 1q-14 11 -14 28q0 14 11 25t24 11q11 0 22 -8l105 -80l104 80q11 8 21 8q14 0 25 -11t11 -25
z" />
    <glyph glyph-name="uni0312" unicode="&#x312;" 
d="M212 519q0 13 8 43q9 27 71 89q11 8 18 8q12 0 19 -7t7 -19q0 -10 -7 -17l-1 -2q-1 -2 -2 -2l-6 -6q-2 -1 -8 -7q-9 -9 -13 -14l-7 -7q46 -13 46 -59q0 -26 -18 -44q-18 -19 -44 -19q-27 0 -45 19q-18 18 -18 44z" />
    <glyph glyph-name="uni0326" unicode="&#x326;" 
d="M338 -87q0 -13 -8 -43q-9 -27 -71 -89q-11 -8 -18 -8q-10 0 -18 8t-8 18t7 17l18 18q4 3 19 20q-46 13 -46 59q0 25 18 45q18 18 44 18q27 0 45 -18q18 -20 18 -45z" />
    <glyph glyph-name="uni0327" unicode="&#x327;" 
d="M359 -104q0 -34 -24 -60q-25 -25 -60 -25q-49 0 -74 43q-4 7 -4 16q0 12 10 21q11 8 21 8q16 0 26 -15q7 -13 21 -13q9 0 17 8q7 7 7 17t-7 17t-17 7q-12 0 -21 9t-9 21v65q0 15 9 22q11 8 21 8t21 -8q9 -8 9 -22v-40q24 -9 39 -30q15 -23 15 -49z" />
    <glyph glyph-name="uni0328" unicode="&#x328;" 
d="M364 -154q0 -19 -18 -28q-28 -11 -45 -11q-41 0 -69 30q-29 32 -29 70q0 29 20 58q11 14 25 41l2 2q1 3 2 5q0 1 1 2.5l2 3t1 2.5q5 10 6 11l2 3q9 17 28 17q14 0 25 -9q10 -10 10 -24q0 -9 -5 -17l-20 -34q-2 -4 -12 -18q-11 -14 -15 -26q-5 -15 -5 -21q0 -12 10 -21
t22 -9q8 0 15 4t15 4q14 0 23 -11q9 -10 9 -24z" />
    <glyph glyph-name="uni0394" unicode="&#x394;" 
d="M473 34q0 -15 -10 -24q-10 -10 -25 -10h-325q-15 0 -25 10q-11 9 -11 24q0 12 3 22q7 35 106 470q17 71 93 71q49 0 69 -24t30 -76l91 -434q4 -13 4 -29zM155 69h238l-87 433q-3 14 -9 20q-8 5 -18 5q-14 0 -19 -8q-6 -12 -10 -30l-3 -12l-11 -47q-2 -10 -12.5 -58.5
t-19.5 -86.5q-6 -27 -23 -100t-26 -116z" />
    <glyph glyph-name="uni03A9" unicode="&#x3a9;" 
d="M511 60q9 -10 9 -25q0 -13 -9 -24q-11 -11 -26 -11h-155q-14 0 -25 11q-10 10 -10 24q0 16 10 26q9 9 25 9q32 0 51 36q19 34 19 74v272q0 70 -70 70h-110q-32 0 -51 -18t-19 -52v-272q0 -36 20 -74q20 -36 50 -36q16 0 26 -10q9 -10 9 -25q0 -13 -9 -24q-11 -11 -26 -11
h-155q-16 0 -25 11q-10 10 -10 24q0 15 10 25q9 10 25 10h51q-36 46 -36 110v272q0 65 40 102q41 38 100 38h110q60 0 101 -38q39 -38 39 -102v-272q0 -68 -36 -110h51q16 0 26 -10z" />
    <glyph glyph-name="uni03BC" unicode="&#x3bc;" 
d="M470 402v-371q0 -16 -10 -25q-10 -10 -25 -10q-26 0 -33 22q-34 -18 -72 -18h-110q-39 0 -70 16v-166q0 -17 -10 -26t-25 -9q-14 0 -24 10q-11 9 -11 25v551q0 17 10 26t25 9t25 -9q10 -10 10 -26v-261q0 -70 70 -70h110q70 0 70 70v262q0 17 10 26t25 9t25 -9
q10 -10 10 -26z" />
    <glyph glyph-name="pi" unicode="&#x3c0;" 
d="M501 423q9 -11 9 -25t-9 -24q-11 -11 -26 -11h-61v-333q0 -16 -10 -25q-10 -10 -25 -10q-14 0 -24 10q-11 9 -11 25v333h-138v-333q0 -16 -10 -25q-10 -10 -25 -10q-14 0 -24 10q-11 9 -11 25v333h-61q-16 0 -25 11q-10 10 -10 24q0 15 10 25q9 10 25 10h400q16 0 26 -10
z" />
    <glyph glyph-name="uni2007" unicode="&#x2007;" 
 />
    <glyph glyph-name="uni2008" unicode="&#x2008;" 
 />
    <glyph glyph-name="uni200B" unicode="&#x200b;" horiz-adv-x="20" 
 />
    <glyph glyph-name="endash" unicode="&#x2013;" 
d="M526 285q0 -13 -9 -24q-11 -11 -27 -11h-430q-17 0 -26 10q-10 10 -10 25t10 25q9 10 26 10h430q17 0 27 -10q9 -10 9 -25z" />
    <glyph glyph-name="emdash" unicode="&#x2014;" 
d="M526 285q0 -13 -9 -24q-11 -11 -27 -11h-430q-17 0 -26 10q-10 10 -10 25t10 25q9 10 26 10h430q17 0 27 -10q9 -10 9 -25z" />
    <glyph glyph-name="quoteleft" unicode="&#x2018;" 
d="M355 607q0 -36 -25 -61q-26 -26 -61 -26t-61 26t-26 61q0 40 19 74q1 3 6 9q1 1 3 5q1 2 1 4q8 13 12 17q7 7 12 14q5 5 7 8q2 2 4 5l3 3l14 14l15 15l14 14q12 12 25 12q14 0 25 -11t11 -25q0 -10 -11 -24l-10 -10q-3 -4 -14 -15l-2 -2q-1 -2 -3 -4l-8 -8
q-12 -12 -13 -14q63 -20 63 -81z" />
    <glyph glyph-name="quoteright" unicode="&#x2019;" 
d="M182 713q0 37 25 62t61 25t61 -25q26 -26 26 -62q0 -40 -19 -74l-2 -2q-2 -1 -3 -6q-4 -6 -5 -9q-5 -10 -12 -17q-8 -9 -12 -15q-1 -2 -14 -15q-1 -1 -5.5 -6t-7.5 -8l-15 -15l-15 -15q-12 -12 -25 -12q-14 0 -25 11t-11 25q0 10 11 24l3 3q5 5 9 10q3 4 12 13
q7 7 12.5 13t9 9.5l4.5 4.5q-63 20 -63 81z" />
    <glyph glyph-name="quotesinglbase" unicode="&#x201a;" 
d="M356 75q0 -22 -11 -60q-13 -37 -99 -123q-11 -11 -24 -11q-14 0 -25 11t-11 25t10 24q2 3 25 26l10 10q3 2 10 9q1 2 6 7q-64 19 -64 82q0 37 25 62t61 25q37 0 62 -25t25 -62z" />
    <glyph glyph-name="quotedblleft" unicode="&#x201c;" 
d="M245 607q0 -36 -25 -61q-26 -26 -61 -26t-61 26t-26 61q0 40 19 74q1 3 6 9q1 1 3 5q1 2 1 4q8 13 12 17q7 7 12 14q5 5 7 8q2 2 4 5l3 3l14 14l15 15l14 14q12 12 25 12q14 0 25 -11t11 -25q0 -10 -11 -24l-10 -10q-3 -4 -14 -15l-2 -2q-1 -2 -3 -4l-8 -8
q-12 -12 -13 -14q63 -20 63 -81zM475 607q0 -36 -25 -61q-26 -26 -61 -26t-61 26t-26 61q0 40 19 74q1 3 6 9q1 1 3 5q1 2 1 4q8 13 12 17q7 7 12 14q5 5 7 8q2 2 4 5l3 3l14 14l15 15l14 14q12 12 25 12q14 0 25 -11t11 -25q0 -10 -11 -24l-10 -10q-3 -4 -14 -15l-2 -2
q-1 -2 -3 -4l-8 -8q-12 -12 -13 -14q63 -20 63 -81z" />
    <glyph glyph-name="quotedblright" unicode="&#x201d;" 
d="M302 713q0 37 25 62t61 25t61 -25q26 -26 26 -62q0 -40 -19 -74l-2 -2q-2 -1 -3 -6q-4 -6 -5 -9q-5 -10 -12 -17q-8 -9 -12 -15q-1 -2 -14 -15q-1 -1 -5.5 -6t-7.5 -8l-15 -15l-15 -15q-12 -12 -25 -12q-14 0 -25 11t-11 25q0 10 11 24l3 3q5 5 9 10q3 4 12 13
q7 7 12.5 13t9 9.5l4.5 4.5q-63 20 -63 81zM72 713q0 37 25 62t61 25t61 -25q26 -26 26 -62q0 -40 -19 -74l-2 -2q-2 -1 -3 -6q-4 -6 -5 -9q-5 -10 -12 -17q-8 -9 -12 -15q-1 -2 -14 -15q-1 -1 -5.5 -6t-7.5 -8l-15 -15l-15 -15q-12 -12 -25 -12q-14 0 -25 11t-11 25
q0 10 11 24l3 3q5 5 9 10q3 4 12 13q7 7 12.5 13t9 9.5l4.5 4.5q-63 20 -63 81z" />
    <glyph glyph-name="quotedblbase" unicode="&#x201e;" 
d="M247 75q0 -22 -11 -60q-14 -37 -99 -123q-11 -11 -24 -11q-14 0 -25 11t-11 25t10 24q2 3 25 26l26 26q-64 19 -64 82q0 37 25 62t61 25q37 0 62 -25t25 -62zM477 75q0 -22 -11 -60q-14 -37 -99 -123q-11 -11 -24 -11q-14 0 -25 11t-11 25t10 24q2 3 25 26l10 10
q3 2 10 9q1 2 6 7q-64 19 -64 82q0 37 25 62t61 25q37 0 62 -25t25 -62z" />
    <glyph glyph-name="dagger" unicode="&#x2020;" 
d="M439 398q0 -14 -9 -24q-11 -11 -26 -11h-94v-333q0 -17 -10 -26t-25 -9q-14 0 -24 10q-11 11 -11 26v332h-94q-17 0 -26 10q-9 11 -9 25q0 15 10 25q9 10 25 10h94v140q0 17 10 26t25 9t25 -9q10 -10 10 -26v-140h94q17 0 26 -10q9 -11 9 -25z" />
    <glyph glyph-name="daggerdbl" unicode="&#x2021;" 
d="M439 205q0 -13 -9 -24q-11 -11 -26 -11h-94v-140q0 -17 -10 -26t-25 -9q-14 0 -24 10q-11 11 -11 26v139h-94q-17 0 -26 10t-9 25t10 25q9 10 25 10h94v123h-94q-17 0 -26 10q-9 11 -9 25q0 15 10 25q9 10 25 10h94v140q0 17 10 26t25 9t25 -9q10 -10 10 -26v-140h94
q17 0 26 -10q9 -11 9 -25t-9 -24q-11 -11 -26 -11h-94v-123h94q17 0 26 -10q9 -11 9 -25z" />
    <glyph glyph-name="bullet" unicode="&#x2022;" 
d="M369 359q0 -41 -29 -70q-28 -28 -71 -28q-42 0 -70 28q-29 29 -29 70q0 39 29 71q29 29 70 29q39 0 71 -29q29 -32 29 -71z" />
    <glyph glyph-name="ellipsis" unicode="&#x2026;" 
d="M20 137q24 25 59 25t60 -25t25 -60t-25 -59q-25 -25 -60 -25t-59 25q-25 24 -25 59t25 60zM412 137q24 25 59 25t60 -25t25 -60t-25 -59q-25 -25 -60 -25t-59 25q-25 24 -25 59t25 60zM216 137q24 25 59 25t60 -25t25 -60t-25 -59q-25 -25 -60 -25t-59 25q-25 24 -25 59
t25 60z" />
    <glyph glyph-name="perthousand" unicode="&#x2030;" 
d="M427 742q0 -10 -6 -23l-355 -840q-8 -21 -32 -21q-15 0 -25 10q-11 9 -11 24q0 8 3 15l302 714q-53 -28 -116 -48q13 -25 13 -59v-75q0 -50 -26 -82t-73 -32q-45 0 -72 33q-28 31 -28 81v75q0 49 27 82q27 32 72 32h14q43 0 106 31q67 30 101 61q11 11 14 15l11 11
q1 2 4 4.5t5 3.5q1 2 20 14q10 7 21 7q13 0 22 -9q9 -10 9 -24zM550 184v-75q0 -50 -26 -82t-73 -32q-37 0 -64 24q-25 -24 -65 -24q-45 0 -72 33q-28 31 -28 81v75q0 49 27 82q27 32 72 32q38 0 65 -24q26 24 64 24q47 0 74 -32q26 -32 26 -82zM130 439v75q0 44 -30 44
q-29 0 -29 -44v-75q0 -44 30 -44q29 0 29 44zM480 109v75q0 44 -30 44q-29 0 -29 -45v-76q0 -22 10 -32q9 -10 20 -10q29 0 29 44zM351 106v76q0 46 -30 46q-29 0 -29 -44v-75q0 -44 30 -44q29 0 29 41z" />
    <glyph glyph-name="guilsinglleft" unicode="&#x2039;" 
d="M370 98q0 -13 -11 -24t-25 -11q-16 0 -27 14l-144 179q-8 11 -8 25t8 25l144 179q11 14 27 14q15 0 25 -10q11 -11 11 -25q0 -11 -8 -22l-130 -161l130 -162q8 -11 8 -21z" />
    <glyph glyph-name="guilsinglright" unicode="&#x203a;" 
d="M180 98q0 10 8 21l130 162l-130 161q-8 11 -8 22q0 14 11 25q10 10 25 10q16 0 27 -14l144 -179q8 -11 8 -25t-8 -25l-144 -179q-11 -14 -27 -14q-14 0 -25 11t-11 24z" />
    <glyph glyph-name="fraction" unicode="&#x2044;" 
d="M528 708q0 -2 -5 -19l-427 -783q-11 -20 -31 -20q-15 0 -25 10q-11 11 -11 25q0 2 5 19l427 783q11 20 31 20q16 0 26 -10t10 -25z" />
    <glyph glyph-name="Euro" unicode="&#x20ac;" 
d="M494 35q0 -13 -9 -24q-11 -11 -26 -11h-176q-61 0 -101 40q-42 39 -42 103v50h-35q-17 0 -27 10q-10 9 -10 24q0 14 10 24t27 10h35v70h-35q-17 0 -27 10q-10 9 -10 24q0 14 10 24t27 10h35v50q0 63 42 104q40 39 101 39h176q17 0 26 -10t9 -25q0 -13 -9 -24
q-11 -11 -26 -11h-176q-34 0 -53 -19q-20 -20 -20 -54v-50h203q17 0 27 -9q10 -10 10 -25q0 -14 -10 -24t-27 -10h-203v-70h172q16 0 27 -9q10 -10 10 -25q0 -14 -10 -24t-27 -10h-172v-50q0 -34 20 -54q19 -19 53 -19h176q17 0 26 -10t9 -25z" />
    <glyph glyph-name="uni2117" unicode="&#x2117;" 
d="M335 317v29q0 16 -28 16h-76v-59h80q24 0 24 14zM405 346v-29q0 -40 -28 -62t-66 -22h-80v-75q0 -17 -10 -26q-11 -9 -25 -9t-24 10q-11 9 -11 25v239q0 14 11 25q10 10 24 10h111q40 0 68 -22q30 -22 30 -64zM481 170v220q0 42 -29 71t-71 29h-211q-42 0 -71 -29
t-29 -71v-220q0 -42 29 -71t71 -29h211q42 0 71 29t29 71zM551 390v-220q0 -70 -50 -120t-120 -50h-211q-70 0 -120 50t-50 120v220q0 70 50 120t120 50h211q70 0 120 -50t50 -120z" />
    <glyph glyph-name="trademark" unicode="&#x2122;" 
d="M528 402v-243q0 -17 -10 -26t-25 -9q-14 0 -24 10q-11 9 -11 25v140q-1 -3 -3.5 -9.5t-3.5 -9.5q-5 -10 -6 -15q-1 -6 -3 -8q-10 -28 -33 -28q-21 0 -32 27l-17 41v-138q0 -17 -10 -26t-25 -9q-14 0 -24 10q-11 9 -11 25v243q0 14 11 25q10 10 24 10h19q16 0 23 -4
q9 -4 16 -13q4 -7 10 -17l9 -21q0 -3 1 -4q1 0 1 -2t1 -2q2 -7 3 -8t1 -4q0 2 1 3l2 6q0 2 1 3t1 3q4 11 6 15l4 6q2 4 3 7q6 12 8 14q8 8 10 9q8 6 14 7q3 0 6 0.5t5 1t4 0.5h1h18q15 0 25 -10t10 -25zM269 400q0 -14 -9 -24q-11 -11 -26 -11h-55v-206q0 -17 -10 -26
q-11 -9 -25 -9t-24 10q-11 9 -11 25v206h-56q-17 0 -26 10q-9 11 -9 25q0 15 10 25q9 10 25 10h181q17 0 26 -10q9 -11 9 -25z" />
    <glyph glyph-name="Omega" unicode="&#x2126;" 
d="M511 60q9 -10 9 -25q0 -13 -9 -24q-11 -11 -26 -11h-155q-14 0 -25 11q-10 10 -10 24q0 16 10 26q9 9 25 9q32 0 51 36q19 34 19 74v272q0 70 -70 70h-110q-32 0 -51 -18t-19 -52v-272q0 -36 20 -74q20 -36 50 -36q16 0 26 -10q9 -10 9 -25q0 -13 -9 -24q-11 -11 -26 -11
h-155q-16 0 -25 11q-10 10 -10 24q0 15 10 25q9 10 25 10h51q-36 46 -36 110v272q0 65 40 102q41 38 100 38h110q60 0 101 -38q39 -38 39 -102v-272q0 -68 -36 -110h51q16 0 26 -10z" />
    <glyph glyph-name="arrowleft" unicode="&#x2190;" 
d="M547 281q0 -13 -9 -24q-11 -11 -26 -11h-391l157 -130q14 -11 14 -28q0 -14 -10 -24q-11 -11 -25 -11t-24 10l-221 190q-13 12 -13 26q0 17 14 29l211 189q14 11 25 11q14 0 25 -11q10 -10 10 -25t-13 -27l-149 -129h390q17 0 26 -10q9 -11 9 -25z" />
    <glyph glyph-name="arrowright" unicode="&#x2192;" 
d="M547 279q0 -14 -13 -26l-221 -190q-10 -10 -24 -10q-13 0 -24 11t-11 24q0 19 13 28l158 130h-391q-17 0 -26 10t-9 25t10 25q9 10 25 10h390l-149 129q-13 12 -13 27q0 14 11 25t24 11q11 0 25 -11l211 -189q14 -12 14 -29z" />
    <glyph glyph-name="uni21B2" unicode="&#x21b2;" 
d="M548 471v-190q0 -15 -9 -25t-25 -10h-392l157 -130q14 -12 14 -28q0 -14 -10 -24q-11 -11 -25 -11q-15 0 -25 10l-220 190q-14 12 -14 26q0 15 15 29l209 187q13 13 27 13t25 -11q10 -10 10 -25t-14 -27l-148 -129h355v155q0 17 10 26t25 9t25 -9q10 -10 10 -26z" />
    <glyph glyph-name="uni21B3" unicode="&#x21b3;" 
d="M548 279q0 -14 -14 -26l-220 -190q-10 -10 -25 -10q-13 0 -24 11t-11 24q0 17 14 28l157 130h-391q-17 0 -26 10t-9 25v190q0 17 10 26q11 9 25 9t25 -9q10 -10 10 -26v-155h355l-148 129q-14 12 -14 27q0 14 11 25t25 11q13 0 26 -13l210 -187q14 -12 14 -29z" />
    <glyph glyph-name="partialdiff" unicode="&#x2202;" 
d="M470 289v-149q0 -65 -40 -102q-41 -38 -100 -38h-110q-59 0 -100 38q-40 37 -40 102v100q0 65 40 102q41 38 100 38h110q30 0 66 -14q-13 87 -72 128q-60 39 -164 39h-25q-16 0 -25 11q-9 10 -9 24t9 24q8 9 25 11h17q60 0 133 -17q65 -16 103 -54q52 -52 67 -106
q15 -56 15 -137zM400 140v100q0 34 -19 52t-51 18h-110q-70 0 -70 -70v-100q0 -70 70 -70h110q32 0 51 18t19 52z" />
    <glyph glyph-name="Delta" unicode="&#x2206;" 
d="M473 34q0 -15 -10 -24q-10 -10 -25 -10h-325q-15 0 -25 10q-11 9 -11 24q0 12 3 22q7 35 106 470q17 71 93 71q49 0 69 -24t30 -76l91 -434q4 -13 4 -29zM155 69h238l-87 433q-3 14 -9 20q-8 5 -18 5q-14 0 -19 -8q-6 -12 -10 -30l-3 -12l-11 -47q-2 -10 -12.5 -58.5
t-19.5 -86.5q-6 -27 -23 -100t-26 -116z" />
    <glyph glyph-name="product" unicode="&#x220f;" 
d="M550 557q0 -13 -9 -24q-11 -11 -26 -11h-65v-672q0 -17 -10 -26t-25 -9q-14 0 -24 10q-11 9 -11 25v672h-210v-672q0 -17 -10 -26q-11 -9 -25 -9t-24 10q-11 9 -11 25v672h-65q-17 0 -26 10t-9 25t10 25q9 10 25 10h480q17 0 26 -10t9 -25z" />
    <glyph glyph-name="summation" unicode="&#x2211;" 
d="M462 -110q9 -10 9 -25q0 -13 -9 -24q-11 -11 -26 -11h-311q-18 0 -27 11t-9 25q0 13 7 20l217 329l-213 318q-10 13 -10 25q0 15 10 25q9 10 25 10h301q16 0 26 -10q9 -11 9 -25t-9 -24q-11 -11 -26 -11h-225l177 -272q14 -23 14 -37q0 -11 -14 -34l-179 -280h237
q16 0 26 -10z" />
    <glyph glyph-name="minus" unicode="&#x2212;" 
d="M502 280q0 -14 -10 -24q-11 -11 -27 -11h-381q-17 0 -26 10q-10 10 -10 25t10 25q9 10 26 10h381q17 0 27 -10t10 -25z" />
    <glyph glyph-name="uni2219" unicode="&#x2219;" 
d="M374 278q0 -41 -29 -70q-28 -28 -71 -28q-42 0 -70 28q-29 29 -29 70q0 39 29 71q29 29 70 29q39 0 71 -29q29 -32 29 -71z" />
    <glyph glyph-name="radical" unicode="&#x221a;" 
d="M487 667v-4q-1 -1 -1 -4q0 -4 -1 -5q-1 -2 -1 -10q0 -11 -16 -111l-16 -110q-4 -23 -9 -64q-3 -17 -6 -38t-4 -25q0 -6 -4 -30q-7 -42 -7 -46q-7 -41 -12 -77q-4 -33 -9 -57q-14 -89 -105 -89q-27 0 -54 11q-23 11 -35 33q-9 14 -19 41q-5 17 -12 49l-49 235h-75
q-16 0 -25 11q-10 10 -10 24q0 15 10 25q9 10 25 10h109q28 0 34 -29l51 -264q10 -49 19 -62q9 -14 31 -14q20 0 30 19q10 15 16 58l76 528q4 28 33 28q15 0 25 -9q11 -9 11 -24z" />
    <glyph glyph-name="infinity" unicode="&#x221e;" 
d="M553 286q0 -66 -43 -108q-43 -43 -101 -43q-41 0 -78 21q-35 20 -56 47q-20 -27 -56 -47q-36 -21 -78 -21q-57 0 -100 43q-44 42 -44 108q0 62 42 107t102 45q40 0 78 -20q37 -22 56 -48q21 27 56 47q37 21 78 21q60 0 102 -44q42 -45 42 -108zM210 231q30 25 30 55
t-30 56q-32 26 -69 26q-34 0 -54 -26t-20 -56t20 -56q19 -25 54 -25q37 0 69 26zM483 286q0 32 -19 57t-55 25t-68 -26q-31 -25 -31 -56q0 -30 31 -55q32 -26 68 -26q35 0 54 25q20 26 20 56z" />
    <glyph glyph-name="integral" unicode="&#x222b;" 
d="M444 608q9 -10 9 -25q0 -13 -9 -24q-11 -11 -26 -11h-47q-70 0 -70 -70v-527q0 -65 -39 -102q-41 -38 -101 -38h-29q-16 0 -25 11q-10 10 -10 24q0 15 10 25q9 10 25 10h29q70 0 70 70v527q0 64 39 102q41 38 101 38h47q16 0 26 -10z" />
    <glyph glyph-name="approxequal" unicode="&#x2248;" 
d="M500 395q0 -10 -11 -27q-43 -66 -124 -66q-43 0 -80 22h-1q-1 1 -3 2.5t-4.5 3t-6.5 4t-8 4.5q-17 10 -29 15l-25 10q-22 5 -30 5q-39 0 -61 -40q-11 -18 -30 -18q-16 0 -26 10q-11 9 -11 23q0 11 11 28q44 65 121 65q56 0 114 -37q43 -28 75 -28t59 35q16 22 32 22
q15 0 27 -9q11 -11 11 -24zM500 205q0 -7 -11 -27q-43 -66 -124 -66q-43 0 -80 22h-1q-1 1 -3 2.5t-4.5 3t-6.5 4t-8 4.5q-17 10 -29 15l-25 10q-22 5 -30 5q-39 0 -61 -40q-11 -18 -30 -18q-16 0 -26 10q-11 9 -11 23q0 11 11 28q44 65 121 65q56 0 114 -37q43 -28 75 -28
t59 35q16 22 32 22q15 0 27 -9q11 -11 11 -24z" />
    <glyph glyph-name="notequal" unicode="&#x2260;" 
d="M499 179q0 -13 -9 -24q-11 -11 -27 -11h-221l-68 -125q-11 -20 -31 -20q-15 0 -25 10q-11 11 -11 25q0 4 5 19l50 91h-75q-17 0 -26 10q-10 10 -10 25t10 25q9 10 26 10h113l70 130h-183q-17 0 -26 10q-10 10 -10 25t10 25q9 10 26 10h222l67 124q11 20 31 20
q16 0 26 -10t10 -25q0 -4 -5 -19l-49 -90h74q17 0 27 -10q9 -11 9 -25q0 -13 -9 -24q-11 -11 -27 -11h-112l-71 -130h183q17 0 27 -10q9 -10 9 -25z" />
    <glyph glyph-name="lessequal" unicode="&#x2264;" 
d="M502 151q0 -15 -10 -25q-11 -11 -24 -11q-11 0 -25 8l-378 189q-17 9 -17 31q0 21 18 30l375 188q18 9 27 9q14 0 24 -10t10 -25q0 -21 -15 -29l-326 -163l323 -162q18 -11 18 -30zM493 60q9 -10 9 -25q0 -13 -9 -24q-11 -11 -26 -11h-382q-16 0 -27 11q-10 10 -10 24
q0 15 10 25q9 10 27 10h382q16 0 26 -10z" />
    <glyph glyph-name="greaterequal" unicode="&#x2265;" 
d="M502 343q0 -22 -17 -31l-378 -189q-14 -8 -25 -8q-13 0 -24 11q-10 10 -10 25q0 19 18 30l323 162l-326 163q-15 8 -15 29q0 15 10 25t24 10q9 0 27 -9l375 -188q18 -9 18 -30zM83 70h382q17 0 27 -10t10 -25q0 -13 -9 -24q-11 -11 -28 -11h-382q-16 0 -25 11
q-10 10 -10 24q0 15 10 25q9 10 25 10z" />
    <glyph glyph-name="dotmath" unicode="&#x22c5;" 
d="M328 333q21 -23 21 -53q0 -31 -21 -52q-22 -22 -53 -22t-52 22q-21 21 -21 52q0 30 21 53q21 21 52 21t53 -21z" />
    <glyph glyph-name="lozenge" unicode="&#x25ca;" 
d="M473 300q0 -6 -3 -13l-83 -196q-22 -54 -45 -74t-67 -20t-66 19q-23 20 -45 73l-84 197q-3 8 -3 14t3 13l83 196q22 54 46 75q22 19 66 19t66 -19q23 -20 45 -73l84 -197q3 -7 3 -14zM320 109l82 191l-84 192q-2 4 -6 15q-1 3 -3 7q-1 4 -2 4t-2 3l-2 4q-1 3 -6 5
q-3 0 -4 1t-5 1q-1 1 -13 1t-14 -1h-5l-4 -2q-3 -2 -6 -6l-4 -4l-1 -3l-1 -1v-2l-1 -2l-1 -2v-2l-1 -1q-1 -1 -1 -2q0 -2 -1 -3t-1 -3q-1 -3 -3 -5q-1 -1 -1 -3l-82 -191l84 -192q1 -6 6 -14l5 -12l4 -6q3 -5 7 -6q1 -1 4 -1q1 -1 4 -1q1 -1 13 -1q10 0 11 1q6 0 7 1
q3 0 6 3q4 2 5 3t4 7q2 6 3 7l1 1l1 2l1 2l1 2q1 1 1 2q2 2 3 6q1 2 1 5z" />
    <glyph glyph-name="uniFB01" unicode="&#xfb01;" 
d="M537 35q0 -13 -9 -24q-11 -11 -26 -11h-202q-17 0 -26 10t-9 25t10 25q9 10 25 10h60v293h-196v-332q0 -17 -10 -26t-25 -9q-14 0 -24 10q-11 9 -11 25v332h-47q-17 0 -26 10q-9 11 -9 25q0 15 10 25q9 10 25 10h47v46q0 65 39 103q37 37 101 37h52q94 0 129 -84
q3 -7 3 -15q0 -15 -11 -24q-10 -10 -26 -10q-22 0 -31 23q-7 21 -22 31q-15 9 -42 9h-52q-70 0 -70 -70v-46h221q19 0 32 -13t13 -32v-318h72q17 0 26 -10t9 -25z" />
    <glyph glyph-name="uniFB02" unicode="&#xfb02;" 
d="M535 35q0 -13 -9 -24q-11 -11 -26 -11h-200q-16 0 -25 11q-10 10 -10 24q0 15 10 25q9 10 25 10h60v479h-126q-70 0 -70 -70v-46h98q17 0 26 -10q9 -11 9 -25t-9 -24q-11 -11 -26 -11h-98v-332q0 -17 -10 -26t-25 -9q-14 0 -24 10q-11 9 -11 25v332h-47q-17 0 -26 10
q-9 11 -9 25q0 15 10 25q9 10 25 10h47v46q0 66 40 103q37 37 100 37h161q15 0 25 -10t10 -25v-514h70q17 0 26 -10t9 -25z" />
    <glyph glyph-name="uniFEFF" unicode="&#xfeff;" horiz-adv-x="20" 
 />
  </font>
</defs>
</svg>
